<svg xmlns="http://www.w3.org/2000/svg" xmlns:xlink="http://www.w3.org/1999/xlink" width="1080" zoomAndPan="magnify" viewBox="0 0 810 809.999993" height="1080" preserveAspectRatio="xMidYMid meet" version="1.0"><defs><g/><clipPath id="8f58830de2"><path d="M 99 0.320312 L 733 0.320312 L 733 88 L 99 88 Z M 99 0.320312 " clip-rule="nonzero"/></clipPath><clipPath id="ef03b596ec"><rect x="0" width="634" y="0" height="88"/></clipPath><clipPath id="a5fbc9bc30"><path d="M 0 98 L 637 98 L 637 541.761719 L 0 541.761719 Z M 0 98 " clip-rule="nonzero"/></clipPath><clipPath id="bf56875bcf"><rect x="0" width="637" y="0" height="444"/></clipPath><clipPath id="e32c2a2b60"><path d="M 532 98 L 810 98 L 810 541.761719 L 532 541.761719 Z M 532 98 " clip-rule="nonzero"/></clipPath><clipPath id="ac54b4cd16"><rect x="0" width="278" y="0" height="444"/></clipPath><clipPath id="eaf68537d0"><rect x="0" width="810" y="0" height="542"/></clipPath></defs><g transform="matrix(1, 0, 0, 1, 0, 130)"><g clip-path="url(#eaf68537d0)"><g clip-path="url(#8f58830de2)"><g transform="matrix(1, 0, 0, 1, 99, 0.000000000000028422)"><g clip-path="url(#ef03b596ec)"><g fill="#ffffff" fill-opacity="1"><g transform="translate(0.892789, 64.413312)"><g><path d="M 26.21875 -48.796875 C 32.445312 -48.796875 37.328125 -47.304688 40.859375 -44.328125 C 44.390625 -41.359375 46.15625 -37.273438 46.15625 -32.078125 C 46.15625 -26.867188 44.390625 -22.785156 40.859375 -19.828125 C 37.328125 -16.878906 32.445312 -15.40625 26.21875 -15.40625 L 13.109375 -15.40625 L 13.109375 0 L 7.953125 0 L 7.953125 -48.796875 Z M 26.078125 -19.9375 C 30.910156 -19.9375 34.601562 -20.992188 37.15625 -23.109375 C 39.71875 -25.222656 41 -28.210938 41 -32.078125 C 41 -36.023438 39.71875 -39.054688 37.15625 -41.171875 C 34.601562 -43.285156 30.910156 -44.34375 26.078125 -44.34375 L 13.109375 -44.34375 L 13.109375 -19.9375 Z M 26.078125 -19.9375 "/></g></g></g><g fill="#ffffff" fill-opacity="1"><g transform="translate(68.388398, 64.413312)"><g><path d="M 41.28125 0 L 30.125 -15.6875 C 28.863281 -15.550781 27.5625 -15.484375 26.21875 -15.484375 L 13.109375 -15.484375 L 13.109375 0 L 7.953125 0 L 7.953125 -48.796875 L 26.21875 -48.796875 C 32.445312 -48.796875 37.328125 -47.304688 40.859375 -44.328125 C 44.390625 -41.359375 46.15625 -37.273438 46.15625 -32.078125 C 46.15625 -28.265625 45.191406 -25.039062 43.265625 -22.40625 C 41.335938 -19.78125 38.582031 -17.890625 35 -16.734375 L 46.921875 0 Z M 26.078125 -19.875 C 30.910156 -19.875 34.601562 -20.941406 37.15625 -23.078125 C 39.71875 -25.210938 41 -28.210938 41 -32.078125 C 41 -36.023438 39.71875 -39.054688 37.15625 -41.171875 C 34.601562 -43.285156 30.910156 -44.34375 26.078125 -44.34375 L 13.109375 -44.34375 L 13.109375 -19.875 Z M 26.078125 -19.875 "/></g></g></g><g fill="#ffffff" fill-opacity="1"><g transform="translate(136.232624, 64.413312)"><g><path d="M 29.28125 0.421875 C 24.445312 0.421875 20.066406 -0.65625 16.140625 -2.8125 C 12.210938 -4.976562 9.144531 -7.941406 6.9375 -11.703125 C 4.726562 -15.472656 3.625 -19.707031 3.625 -24.40625 C 3.625 -29.09375 4.726562 -33.316406 6.9375 -37.078125 C 9.144531 -40.847656 12.210938 -43.8125 16.140625 -45.96875 C 20.066406 -48.132812 24.445312 -49.21875 29.28125 -49.21875 C 34.113281 -49.21875 38.46875 -48.148438 42.34375 -46.015625 C 46.226562 -43.878906 49.285156 -40.914062 51.515625 -37.125 C 53.753906 -33.332031 54.875 -29.09375 54.875 -24.40625 C 54.875 -19.707031 53.753906 -15.460938 51.515625 -11.671875 C 49.285156 -7.890625 46.226562 -4.925781 42.34375 -2.78125 C 38.46875 -0.644531 34.113281 0.421875 29.28125 0.421875 Z M 29.28125 -4.1875 C 33.132812 -4.1875 36.617188 -5.054688 39.734375 -6.796875 C 42.847656 -8.535156 45.285156 -10.953125 47.046875 -14.046875 C 48.816406 -17.140625 49.703125 -20.59375 49.703125 -24.40625 C 49.703125 -28.21875 48.816406 -31.664062 47.046875 -34.75 C 45.285156 -37.84375 42.847656 -40.257812 39.734375 -42 C 36.617188 -43.75 33.132812 -44.625 29.28125 -44.625 C 25.425781 -44.625 21.925781 -43.75 18.78125 -42 C 15.644531 -40.257812 13.179688 -37.84375 11.390625 -34.75 C 9.609375 -31.664062 8.71875 -28.21875 8.71875 -24.40625 C 8.71875 -20.59375 9.609375 -17.140625 11.390625 -14.046875 C 13.179688 -10.953125 15.644531 -8.535156 18.78125 -6.796875 C 21.925781 -5.054688 25.425781 -4.1875 29.28125 -4.1875 Z M 29.28125 -4.1875 "/></g></g></g><g fill="#ffffff" fill-opacity="1"><g transform="translate(212.165195, 64.413312)"><g><path d="M 7.953125 -48.796875 L 27.8125 -48.796875 C 32.976562 -48.796875 37.535156 -47.757812 41.484375 -45.6875 C 45.429688 -43.625 48.5 -40.742188 50.6875 -37.046875 C 52.875 -33.359375 53.96875 -29.144531 53.96875 -24.40625 C 53.96875 -19.664062 52.875 -15.445312 50.6875 -11.75 C 48.5 -8.050781 45.429688 -5.164062 41.484375 -3.09375 C 37.535156 -1.03125 32.976562 0 27.8125 0 L 7.953125 0 Z M 27.53125 -4.46875 C 31.8125 -4.46875 35.554688 -5.3125 38.765625 -7 C 41.972656 -8.695312 44.457031 -11.046875 46.21875 -14.046875 C 47.988281 -17.046875 48.875 -20.5 48.875 -24.40625 C 48.875 -28.3125 47.988281 -31.757812 46.21875 -34.75 C 44.457031 -37.75 41.972656 -40.097656 38.765625 -41.796875 C 35.554688 -43.492188 31.8125 -44.34375 27.53125 -44.34375 L 13.109375 -44.34375 L 13.109375 -4.46875 Z M 27.53125 -4.46875 "/></g></g></g><g fill="#ffffff" fill-opacity="1"><g transform="translate(287.191288, 64.413312)"><g><path d="M 27.609375 0.421875 C 21.285156 0.421875 16.359375 -1.390625 12.828125 -5.015625 C 9.296875 -8.640625 7.53125 -13.914062 7.53125 -20.84375 L 7.53125 -48.796875 L 12.6875 -48.796875 L 12.6875 -21.0625 C 12.6875 -15.382812 13.960938 -11.148438 16.515625 -8.359375 C 19.078125 -5.578125 22.773438 -4.1875 27.609375 -4.1875 C 32.484375 -4.1875 36.195312 -5.578125 38.75 -8.359375 C 41.3125 -11.148438 42.59375 -15.382812 42.59375 -21.0625 L 42.59375 -48.796875 L 47.625 -48.796875 L 47.625 -20.84375 C 47.625 -13.914062 45.867188 -8.640625 42.359375 -5.015625 C 38.847656 -1.390625 33.929688 0.421875 27.609375 0.421875 Z M 27.609375 0.421875 "/></g></g></g><g fill="#ffffff" fill-opacity="1"><g transform="translate(359.846744, 64.413312)"><g><path d="M 17.4375 -44.34375 L 0.28125 -44.34375 L 0.28125 -48.796875 L 39.734375 -48.796875 L 39.734375 -44.34375 L 22.59375 -44.34375 L 22.59375 0 L 17.4375 0 Z M 17.4375 -44.34375 "/></g></g></g><g fill="#ffffff" fill-opacity="1"><g transform="translate(417.301677, 64.413312)"><g><path d="M 29.28125 0.421875 C 24.445312 0.421875 20.066406 -0.65625 16.140625 -2.8125 C 12.210938 -4.976562 9.144531 -7.941406 6.9375 -11.703125 C 4.726562 -15.472656 3.625 -19.707031 3.625 -24.40625 C 3.625 -29.09375 4.726562 -33.316406 6.9375 -37.078125 C 9.144531 -40.847656 12.210938 -43.8125 16.140625 -45.96875 C 20.066406 -48.132812 24.445312 -49.21875 29.28125 -49.21875 C 34.113281 -49.21875 38.46875 -48.148438 42.34375 -46.015625 C 46.226562 -43.878906 49.285156 -40.914062 51.515625 -37.125 C 53.753906 -33.332031 54.875 -29.09375 54.875 -24.40625 C 54.875 -19.707031 53.753906 -15.460938 51.515625 -11.671875 C 49.285156 -7.890625 46.226562 -4.925781 42.34375 -2.78125 C 38.46875 -0.644531 34.113281 0.421875 29.28125 0.421875 Z M 29.28125 -4.1875 C 33.132812 -4.1875 36.617188 -5.054688 39.734375 -6.796875 C 42.847656 -8.535156 45.285156 -10.953125 47.046875 -14.046875 C 48.816406 -17.140625 49.703125 -20.59375 49.703125 -24.40625 C 49.703125 -28.21875 48.816406 -31.664062 47.046875 -34.75 C 45.285156 -37.84375 42.847656 -40.257812 39.734375 -42 C 36.617188 -43.75 33.132812 -44.625 29.28125 -44.625 C 25.425781 -44.625 21.925781 -43.75 18.78125 -42 C 15.644531 -40.257812 13.179688 -37.84375 11.390625 -34.75 C 9.609375 -31.664062 8.71875 -28.21875 8.71875 -24.40625 C 8.71875 -20.59375 9.609375 -17.140625 11.390625 -14.046875 C 13.179688 -10.953125 15.644531 -8.535156 18.78125 -6.796875 C 21.925781 -5.054688 25.425781 -4.1875 29.28125 -4.1875 Z M 29.28125 -4.1875 "/></g></g></g><g fill="#ffffff" fill-opacity="1"><g transform="translate(493.234248, 64.413312)"><g><path d="M 41.28125 0 L 30.125 -15.6875 C 28.863281 -15.550781 27.5625 -15.484375 26.21875 -15.484375 L 13.109375 -15.484375 L 13.109375 0 L 7.953125 0 L 7.953125 -48.796875 L 26.21875 -48.796875 C 32.445312 -48.796875 37.328125 -47.304688 40.859375 -44.328125 C 44.390625 -41.359375 46.15625 -37.273438 46.15625 -32.078125 C 46.15625 -28.265625 45.191406 -25.039062 43.265625 -22.40625 C 41.335938 -19.78125 38.582031 -17.890625 35 -16.734375 L 46.921875 0 Z M 26.078125 -19.875 C 30.910156 -19.875 34.601562 -20.941406 37.15625 -23.078125 C 39.71875 -25.210938 41 -28.210938 41 -32.078125 C 41 -36.023438 39.71875 -39.054688 37.15625 -41.171875 C 34.601562 -43.285156 30.910156 -44.34375 26.078125 -44.34375 L 13.109375 -44.34375 L 13.109375 -19.875 Z M 26.078125 -19.875 "/></g></g></g><g fill="#ffffff" fill-opacity="1"><g transform="translate(561.078475, 64.413312)"><g><path d="M 38.546875 -13.03125 L 11.359375 -13.03125 L 5.5 0 L 0.140625 0 L 22.453125 -48.796875 L 27.53125 -48.796875 L 49.84375 0 L 44.40625 0 Z M 36.671875 -17.21875 L 24.953125 -43.4375 L 13.25 -17.21875 Z M 36.671875 -17.21875 "/></g></g></g></g></g></g><g clip-path="url(#a5fbc9bc30)"><g transform="matrix(1, 0, 0, 1, 0, 98)"><g clip-path="url(#bf56875bcf)"><g fill="#ffffff" fill-opacity="1"><g transform="translate(0.21626, 332.913813)"><g><path d="M 6.273438 -317.546875 L 79.554688 -317.546875 L 78.464844 -312.753906 C 77.46875 -308.363281 76.664062 -301.046875 76.046875 -290.808594 C 75.425781 -280.421875 75.0625 -268 74.957031 -253.535156 C 74.851562 -239.054688 75.0625 -223.582031 75.582031 -207.117188 C 76.101562 -190.660156 77.039062 -174 78.394531 -157.125 C 79.746094 -140.261719 81.464844 -124.128906 83.546875 -108.726562 C 85.617188 -93.398438 88.152344 -79.738281 91.148438 -67.753906 C 94.09375 -55.976562 97.511719 -46.695312 101.410156 -39.898438 C 104.734375 -34.105469 108.25 -31.207031 111.964844 -31.207031 C 114.601562 -31.207031 116.605469 -31.757812 117.980469 -32.855469 C 119.46875 -34.046875 120.824219 -36.472656 122.042969 -40.128906 C 128.71875 -60.992188 134.824219 -80.457031 140.359375 -98.527344 L 156.355469 -150.902344 C 161.472656 -167.71875 166.539062 -184.640625 171.554688 -201.671875 L 187.394531 -254.996094 L 206.273438 -317.546875 L 262.453125 -317.546875 L 242.890625 -252.746094 L 226.738281 -199.578125 L 211.210938 -148.765625 L 195.21875 -96.238281 L 177.5 -37.753906 C 175.332031 -30.375 172.34375 -23.316406 168.539062 -16.574219 C 164.601562 -9.601562 159.6875 -3.960938 153.792969 0.34375 C 147.667969 4.820312 140.3125 7.058594 131.722656 7.058594 C 123.355469 7.058594 116.058594 4.828125 109.835938 0.363281 C 103.8125 -3.953125 98.878906 -9.617188 95.039062 -16.617188 C 91.367188 -23.316406 88.339844 -30.339844 85.964844 -37.683594 C 79.472656 -58.632812 73.503906 -78.15625 68.0625 -96.25 L 52.226562 -148.78125 L 36.859375 -199.585938 L 20.710938 -252.738281 L 0.980469 -317.546875 Z M 6.273438 -309.703125 L 6.273438 -313.625 L 10.023438 -314.765625 L 28.214844 -255.019531 L 44.367188 -201.855469 L 59.738281 -151.042969 L 75.574219 -98.507812 C 81.007812 -80.433594 86.960938 -60.964844 93.425781 -40.097656 C 95.652344 -33.222656 98.480469 -26.652344 101.917969 -20.390625 C 105.183594 -14.429688 109.347656 -9.636719 114.40625 -6.007812 C 119.261719 -2.527344 125.035156 -0.785156 131.722656 -0.785156 C 138.605469 -0.785156 144.417969 -2.519531 149.167969 -5.988281 C 154.148438 -9.628906 158.328125 -14.441406 161.707031 -20.429688 C 165.21875 -26.652344 167.980469 -33.183594 169.996094 -40.027344 L 187.714844 -98.523438 L 203.710938 -151.058594 L 219.234375 -201.859375 L 235.382812 -255.011719 L 253.417969 -314.757812 L 257.171875 -313.625 L 257.171875 -309.703125 L 209.1875 -309.703125 L 209.1875 -313.625 L 212.941406 -312.492188 L 194.914062 -252.761719 L 179.078125 -199.453125 C 174.054688 -182.402344 168.980469 -165.453125 163.855469 -148.609375 L 147.859375 -96.230469 C 142.3125 -78.128906 136.1875 -58.601562 129.484375 -37.648438 C 127.777344 -32.527344 125.574219 -28.886719 122.882812 -26.730469 C 120.074219 -24.488281 116.433594 -23.363281 111.964844 -23.363281 C 105.222656 -23.363281 99.4375 -27.574219 94.605469 -35.996094 C 90.347656 -43.421875 86.660156 -53.371094 83.539062 -65.851562 C 80.472656 -78.117188 77.882812 -92.058594 75.773438 -107.675781 C 73.675781 -123.21875 71.941406 -139.492188 70.578125 -156.5 C 69.210938 -173.496094 68.269531 -190.285156 67.742188 -206.867188 C 67.21875 -223.4375 67.007812 -239.011719 67.113281 -253.59375 C 67.21875 -268.195312 67.585938 -280.753906 68.21875 -291.277344 C 68.859375 -301.945312 69.726562 -309.683594 70.820312 -314.492188 L 74.640625 -313.625 L 74.640625 -309.703125 Z M 6.273438 -309.703125 "/></g></g></g><g fill="#ffffff" fill-opacity="1"><g transform="translate(263.616201, 332.913813)"><g><path d="M 18.03125 -317.546875 L 71.351562 -317.546875 L 71.351562 3.921875 L 18.03125 3.921875 Z M 25.875 -309.703125 L 25.875 -3.921875 L 63.507812 -3.921875 L 63.507812 -309.703125 Z M 25.875 -309.703125 "/></g></g></g><g fill="#ffffff" fill-opacity="1"><g transform="translate(352.984043, 332.913813)"><g><path d="M 6.273438 -317.546875 L 79.554688 -317.546875 L 78.464844 -312.753906 C 77.46875 -308.363281 76.664062 -301.046875 76.046875 -290.808594 C 75.425781 -280.421875 75.0625 -268 74.957031 -253.535156 C 74.851562 -239.054688 75.0625 -223.582031 75.582031 -207.117188 C 76.101562 -190.660156 77.039062 -174 78.394531 -157.125 C 79.746094 -140.261719 81.464844 -124.128906 83.546875 -108.726562 C 85.617188 -93.398438 88.152344 -79.738281 91.148438 -67.753906 C 94.09375 -55.976562 97.511719 -46.695312 101.410156 -39.898438 C 104.734375 -34.105469 108.25 -31.207031 111.964844 -31.207031 C 114.601562 -31.207031 116.605469 -31.757812 117.980469 -32.855469 C 119.46875 -34.046875 120.824219 -36.472656 122.042969 -40.128906 C 128.71875 -60.992188 134.824219 -80.457031 140.359375 -98.527344 L 156.355469 -150.902344 C 161.472656 -167.71875 166.539062 -184.640625 171.554688 -201.671875 L 187.394531 -254.996094 L 206.273438 -317.546875 L 262.453125 -317.546875 L 242.890625 -252.746094 L 226.738281 -199.578125 L 211.210938 -148.765625 L 195.21875 -96.238281 L 177.5 -37.753906 C 175.332031 -30.375 172.34375 -23.316406 168.539062 -16.574219 C 164.601562 -9.601562 159.6875 -3.960938 153.792969 0.34375 C 147.667969 4.820312 140.3125 7.058594 131.722656 7.058594 C 123.355469 7.058594 116.058594 4.828125 109.835938 0.363281 C 103.8125 -3.953125 98.878906 -9.617188 95.039062 -16.617188 C 91.367188 -23.316406 88.339844 -30.339844 85.964844 -37.683594 C 79.472656 -58.632812 73.503906 -78.15625 68.0625 -96.25 L 52.226562 -148.78125 L 36.859375 -199.585938 L 20.710938 -252.738281 L 0.980469 -317.546875 Z M 6.273438 -309.703125 L 6.273438 -313.625 L 10.023438 -314.765625 L 28.214844 -255.019531 L 44.367188 -201.855469 L 59.738281 -151.042969 L 75.574219 -98.507812 C 81.007812 -80.433594 86.960938 -60.964844 93.425781 -40.097656 C 95.652344 -33.222656 98.480469 -26.652344 101.917969 -20.390625 C 105.183594 -14.429688 109.347656 -9.636719 114.40625 -6.007812 C 119.261719 -2.527344 125.035156 -0.785156 131.722656 -0.785156 C 138.605469 -0.785156 144.417969 -2.519531 149.167969 -5.988281 C 154.148438 -9.628906 158.328125 -14.441406 161.707031 -20.429688 C 165.21875 -26.652344 167.980469 -33.183594 169.996094 -40.027344 L 187.714844 -98.523438 L 203.710938 -151.058594 L 219.234375 -201.859375 L 235.382812 -255.011719 L 253.417969 -314.757812 L 257.171875 -313.625 L 257.171875 -309.703125 L 209.1875 -309.703125 L 209.1875 -313.625 L 212.941406 -312.492188 L 194.914062 -252.761719 L 179.078125 -199.453125 C 174.054688 -182.402344 168.980469 -165.453125 163.855469 -148.609375 L 147.859375 -96.230469 C 142.3125 -78.128906 136.1875 -58.601562 129.484375 -37.648438 C 127.777344 -32.527344 125.574219 -28.886719 122.882812 -26.730469 C 120.074219 -24.488281 116.433594 -23.363281 111.964844 -23.363281 C 105.222656 -23.363281 99.4375 -27.574219 94.605469 -35.996094 C 90.347656 -43.421875 86.660156 -53.371094 83.539062 -65.851562 C 80.472656 -78.117188 77.882812 -92.058594 75.773438 -107.675781 C 73.675781 -123.21875 71.941406 -139.492188 70.578125 -156.5 C 69.210938 -173.496094 68.269531 -190.285156 67.742188 -206.867188 C 67.21875 -223.4375 67.007812 -239.011719 67.113281 -253.59375 C 67.21875 -268.195312 67.585938 -280.753906 68.21875 -291.277344 C 68.859375 -301.945312 69.726562 -309.683594 70.820312 -314.492188 L 74.640625 -313.625 L 74.640625 -309.703125 Z M 6.273438 -309.703125 "/></g></g></g><g fill="#ffffff" fill-opacity="1"><g transform="translate(0.21626, 332.913813)"><g><path d="M 6.265625 -313.625 L 74.640625 -313.625 C 73.597656 -309.019531 72.757812 -301.488281 72.125 -291.03125 C 71.5 -280.582031 71.132812 -268.09375 71.03125 -253.5625 C 70.925781 -239.03125 71.132812 -223.503906 71.65625 -206.984375 C 72.1875 -190.472656 73.128906 -173.75 74.484375 -156.8125 C 75.847656 -139.875 77.570312 -123.671875 79.65625 -108.203125 C 81.75 -92.734375 84.3125 -78.929688 87.34375 -66.796875 C 90.375 -54.671875 93.925781 -45.050781 98 -37.9375 C 102.082031 -30.832031 106.738281 -27.28125 111.96875 -27.28125 C 115.519531 -27.28125 118.335938 -28.113281 120.421875 -29.78125 C 122.515625 -31.457031 124.296875 -34.492188 125.765625 -38.890625 C 132.453125 -59.796875 138.566406 -79.289062 144.109375 -97.375 C 149.648438 -115.46875 154.984375 -132.925781 160.109375 -149.75 C 165.234375 -166.582031 170.300781 -183.519531 175.3125 -200.5625 C 180.332031 -217.601562 185.613281 -235.375 191.15625 -253.875 C 196.695312 -272.382812 202.707031 -292.300781 209.1875 -313.625 L 257.171875 -313.625 C 250.691406 -292.300781 244.679688 -272.382812 239.140625 -253.875 C 233.597656 -235.375 228.210938 -217.65625 222.984375 -200.71875 C 217.753906 -183.78125 212.578125 -166.84375 207.453125 -149.90625 C 202.335938 -132.976562 197.007812 -115.46875 191.46875 -97.375 C 185.925781 -79.289062 180.019531 -59.796875 173.75 -38.890625 C 171.65625 -31.773438 168.78125 -24.976562 165.125 -18.5 C 161.46875 -12.019531 156.921875 -6.789062 151.484375 -2.8125 C 146.046875 1.15625 139.457031 3.140625 131.71875 3.140625 C 124.195312 3.140625 117.664062 1.15625 112.125 -2.8125 C 106.582031 -6.789062 102.03125 -12.019531 98.46875 -18.5 C 94.914062 -24.976562 91.992188 -31.773438 89.703125 -38.890625 C 83.210938 -59.796875 77.25 -79.289062 71.8125 -97.375 C 66.382812 -115.46875 61.109375 -132.976562 55.984375 -149.90625 C 50.859375 -166.84375 45.734375 -183.78125 40.609375 -200.71875 C 35.492188 -217.65625 30.113281 -235.375 24.46875 -253.875 C 18.820312 -272.382812 12.753906 -292.300781 6.265625 -313.625 Z M 6.265625 -313.625 "/></g></g></g><g fill="#ffffff" fill-opacity="1"><g transform="translate(263.616201, 332.913813)"><g><path d="M 21.953125 0 L 21.953125 -313.625 L 67.421875 -313.625 L 67.421875 0 Z M 21.953125 0 "/></g></g></g><g fill="#ffffff" fill-opacity="1"><g transform="translate(352.984043, 332.913813)"><g><path d="M 6.265625 -313.625 L 74.640625 -313.625 C 73.597656 -309.019531 72.757812 -301.488281 72.125 -291.03125 C 71.5 -280.582031 71.132812 -268.09375 71.03125 -253.5625 C 70.925781 -239.03125 71.132812 -223.503906 71.65625 -206.984375 C 72.1875 -190.472656 73.128906 -173.75 74.484375 -156.8125 C 75.847656 -139.875 77.570312 -123.671875 79.65625 -108.203125 C 81.75 -92.734375 84.3125 -78.929688 87.34375 -66.796875 C 90.375 -54.671875 93.925781 -45.050781 98 -37.9375 C 102.082031 -30.832031 106.738281 -27.28125 111.96875 -27.28125 C 115.519531 -27.28125 118.335938 -28.113281 120.421875 -29.78125 C 122.515625 -31.457031 124.296875 -34.492188 125.765625 -38.890625 C 132.453125 -59.796875 138.566406 -79.289062 144.109375 -97.375 C 149.648438 -115.46875 154.984375 -132.925781 160.109375 -149.75 C 165.234375 -166.582031 170.300781 -183.519531 175.3125 -200.5625 C 180.332031 -217.601562 185.613281 -235.375 191.15625 -253.875 C 196.695312 -272.382812 202.707031 -292.300781 209.1875 -313.625 L 257.171875 -313.625 C 250.691406 -292.300781 244.679688 -272.382812 239.140625 -253.875 C 233.597656 -235.375 228.210938 -217.65625 222.984375 -200.71875 C 217.753906 -183.78125 212.578125 -166.84375 207.453125 -149.90625 C 202.335938 -132.976562 197.007812 -115.46875 191.46875 -97.375 C 185.925781 -79.289062 180.019531 -59.796875 173.75 -38.890625 C 171.65625 -31.773438 168.78125 -24.976562 165.125 -18.5 C 161.46875 -12.019531 156.921875 -6.789062 151.484375 -2.8125 C 146.046875 1.15625 139.457031 3.140625 131.71875 3.140625 C 124.195312 3.140625 117.664062 1.15625 112.125 -2.8125 C 106.582031 -6.789062 102.03125 -12.019531 98.46875 -18.5 C 94.914062 -24.976562 91.992188 -31.773438 89.703125 -38.890625 C 83.210938 -59.796875 77.25 -79.289062 71.8125 -97.375 C 66.382812 -115.46875 61.109375 -132.976562 55.984375 -149.90625 C 50.859375 -166.84375 45.734375 -183.78125 40.609375 -200.71875 C 35.492188 -217.65625 30.113281 -235.375 24.46875 -253.875 C 18.820312 -272.382812 12.753906 -292.300781 6.265625 -313.625 Z M 6.265625 -313.625 "/></g></g></g></g></g></g><g clip-path="url(#e32c2a2b60)"><g transform="matrix(1, 0, 0, 1, 532, 98)"><g clip-path="url(#ac54b4cd16)"><g fill="#ffffff" fill-opacity="1"><g transform="translate(14.386343, 332.913813)"><g><path d="M 74.640625 3.921875 L 0.980469 3.921875 L 20.710938 -60.886719 L 36.863281 -114.042969 L 52.226562 -164.847656 L 68.226562 -217.386719 L 85.945312 -275.871094 C 88.332031 -283.46875 91.367188 -290.574219 95.050781 -297.1875 C 98.890625 -304.074219 103.820312 -309.675781 109.835938 -313.988281 C 116.058594 -318.449219 123.355469 -320.683594 131.722656 -320.683594 C 140.3125 -320.683594 147.667969 -318.445312 153.792969 -313.96875 C 159.679688 -309.667969 164.589844 -304.085938 168.523438 -297.230469 C 172.34375 -290.574219 175.339844 -283.4375 177.519531 -275.8125 L 195.21875 -217.378906 L 211.214844 -164.855469 L 226.738281 -114.050781 L 242.890625 -60.886719 L 262.453125 3.921875 L 206.265625 3.921875 L 187.394531 -59.25 L 171.554688 -112.730469 L 175.316406 -113.84375 L 175.316406 -109.925781 L 70.566406 -109.925781 L 70.566406 -113.84375 L 74.484375 -113.75 C 74.070312 -96.445312 73.964844 -80.082031 74.171875 -64.660156 C 74.382812 -49.265625 74.898438 -35.910156 75.730469 -24.59375 C 76.554688 -13.382812 77.46875 -5.460938 78.472656 -0.832031 L 79.507812 3.921875 Z M 74.640625 -3.921875 L 74.640625 0 L 70.8125 0.832031 C 69.726562 -4.15625 68.757812 -12.441406 67.910156 -24.019531 C 67.066406 -35.492188 66.539062 -49.003906 66.332031 -64.554688 C 66.121094 -80.074219 66.226562 -96.535156 66.644531 -113.941406 L 66.738281 -117.765625 L 178.246094 -117.765625 L 194.910156 -61.496094 L 212.945312 -1.121094 L 209.1875 0 L 209.1875 -3.921875 L 257.171875 -3.921875 L 257.171875 0 L 253.417969 1.132812 L 235.386719 -58.605469 L 219.238281 -111.757812 L 203.710938 -162.570312 L 187.714844 -215.105469 L 169.976562 -273.65625 C 167.972656 -280.667969 165.222656 -287.226562 161.722656 -293.324219 C 158.339844 -299.21875 154.152344 -303.992188 149.167969 -307.636719 C 144.417969 -311.105469 138.605469 -312.839844 131.722656 -312.839844 C 125.035156 -312.839844 119.261719 -311.097656 114.40625 -307.613281 C 109.339844 -303.984375 105.171875 -299.234375 101.902344 -293.367188 C 98.480469 -287.222656 95.660156 -280.632812 93.449219 -273.597656 L 75.726562 -215.101562 L 59.734375 -162.578125 L 44.367188 -111.765625 L 28.214844 -58.601562 L 10.023438 1.140625 L 6.273438 0 L 6.273438 -3.921875 Z M 70.878906 -122.472656 L 173.746094 -122.472656 L 173.746094 -118.550781 L 169.984375 -117.453125 C 165.179688 -133.949219 160.273438 -150.289062 155.261719 -166.472656 L 139.734375 -217.132812 C 134.40625 -234.679688 128.507812 -253.480469 122.03125 -273.53125 L 122.015625 -273.578125 L 122 -273.628906 C 121.125 -276.613281 119.941406 -278.929688 118.457031 -280.578125 C 117.355469 -281.804688 115.609375 -282.417969 113.21875 -282.417969 C 108.960938 -282.417969 105.023438 -279.75 101.410156 -274.417969 C 97.257812 -268.285156 93.671875 -259.832031 90.648438 -249.054688 C 87.554688 -238.023438 84.925781 -225.425781 82.753906 -211.257812 C 80.570312 -197.03125 78.859375 -181.96875 77.609375 -166.070312 C 76.359375 -150.125 75.421875 -134.234375 74.796875 -118.394531 L 70.878906 -118.550781 Z M 70.878906 -114.628906 L 66.800781 -114.628906 L 66.960938 -118.703125 C 67.589844 -134.644531 68.535156 -150.640625 69.792969 -166.683594 C 71.054688 -182.773438 72.789062 -198.03125 75 -212.445312 C 77.21875 -226.925781 79.917969 -239.835938 83.097656 -251.171875 C 86.347656 -262.769531 90.289062 -271.984375 94.917969 -278.816406 C 100.085938 -286.445312 106.1875 -290.261719 113.21875 -290.261719 C 117.9375 -290.261719 121.625 -288.78125 124.289062 -285.824219 C 126.566406 -283.292969 128.3125 -279.964844 129.523438 -275.839844 L 125.761719 -274.734375 L 129.496094 -275.941406 C 135.984375 -255.847656 141.894531 -237.011719 147.230469 -219.429688 L 162.753906 -168.792969 C 167.777344 -152.566406 172.699219 -136.183594 177.511719 -119.644531 L 178.972656 -114.628906 Z M 70.878906 -114.628906 "/></g></g></g><g fill="#ffffff" fill-opacity="1"><g transform="translate(14.386343, 332.913813)"><g><path d="M 74.640625 0 L 6.265625 0 C 12.753906 -21.320312 18.820312 -41.234375 24.46875 -59.734375 C 30.113281 -78.242188 35.492188 -95.96875 40.609375 -112.90625 C 45.734375 -129.84375 50.859375 -146.773438 55.984375 -163.703125 C 61.109375 -180.640625 66.4375 -198.148438 71.96875 -216.234375 C 77.507812 -234.328125 83.421875 -253.828125 89.703125 -274.734375 C 91.992188 -282.054688 94.914062 -288.90625 98.46875 -295.28125 C 102.03125 -301.65625 106.582031 -306.828125 112.125 -310.796875 C 117.664062 -314.773438 124.195312 -316.765625 131.71875 -316.765625 C 139.457031 -316.765625 146.046875 -314.773438 151.484375 -310.796875 C 156.921875 -306.828125 161.46875 -301.65625 165.125 -295.28125 C 168.78125 -288.90625 171.65625 -282.054688 173.75 -274.734375 C 180.019531 -253.828125 185.925781 -234.328125 191.46875 -216.234375 C 197.007812 -198.148438 202.335938 -180.640625 207.453125 -163.703125 C 212.578125 -146.773438 217.753906 -129.84375 222.984375 -112.90625 C 228.210938 -95.96875 233.597656 -78.242188 239.140625 -59.734375 C 244.679688 -41.234375 250.691406 -21.320312 257.171875 0 L 209.1875 0 C 202.707031 -21.738281 196.695312 -41.859375 191.15625 -60.359375 C 185.613281 -78.867188 180.332031 -96.695312 175.3125 -113.84375 L 70.5625 -113.84375 C 70.144531 -96.488281 70.039062 -80.078125 70.25 -64.609375 C 70.457031 -49.140625 70.976562 -35.707031 71.8125 -24.3125 C 72.65625 -12.914062 73.597656 -4.8125 74.640625 0 Z M 70.875 -118.546875 L 173.75 -118.546875 C 168.9375 -135.066406 164.019531 -151.425781 159 -167.625 C 153.988281 -183.832031 148.816406 -200.71875 143.484375 -218.28125 C 138.148438 -235.84375 132.242188 -254.660156 125.765625 -274.734375 C 124.722656 -278.285156 123.257812 -281.109375 121.375 -283.203125 C 119.488281 -285.296875 116.769531 -286.34375 113.21875 -286.34375 C 107.570312 -286.34375 102.550781 -283.097656 98.15625 -276.609375 C 93.769531 -270.128906 90.007812 -261.296875 86.875 -250.109375 C 83.738281 -238.929688 81.070312 -226.179688 78.875 -211.859375 C 76.675781 -197.535156 74.945312 -182.375 73.6875 -166.375 C 72.4375 -150.382812 71.5 -134.441406 70.875 -118.546875 Z M 70.875 -118.546875 "/></g></g></g></g></g></g></g></g></svg>